<svg width="50" height="40" viewBox="0 0 50 40" xmlns="http://www.w3.org/2000/svg">
    <g fill="none" fill-rule="evenodd">
        <path d="m28.765 5.866 14.483 24.991a4 4 0 0 1-3.461 6.006H10.295a4 4 0 0 1-3.43-6.06l15.01-24.991a4 4 0 0 1 6.89.054z" fill="#FFC805"/>
        <path d="M27.735 2.106a4.685 4.685 0 0 1 1.606 1.647L45.333 31.35c1.3 2.243.553 5.126-1.67 6.438a4.627 4.627 0 0 1-2.353.644H8.745c-2.574 0-4.661-2.107-4.661-4.706 0-.86.233-1.704.675-2.44L21.333 3.69a4.636 4.636 0 0 1 6.402-1.584z" fill="#FFC805" fill-rule="nonzero"/>
        <path d="m28.765 5.866 14.483 24.991a4 4 0 0 1-3.461 6.006H10.295a4 4 0 0 1-3.43-6.06l15.01-24.991a4 4 0 0 1 6.89.054z" fill="#FFC805"/>
        <path d="M26.93 3.447c.441.27.81.648 1.07 1.099L43.992 32.14a3.154 3.154 0 0 1-1.113 4.292 3.085 3.085 0 0 1-1.569.43H8.745c-1.716 0-3.108-1.405-3.108-3.138 0-.573.156-1.136.45-1.626L22.662 4.503a3.09 3.09 0 0 1 4.268-1.056zm-2.94 1.87L7.416 32.912a1.58 1.58 0 0 0-.225.813c0 .867.696 1.57 1.554 1.57H41.31c.276 0 .547-.075.785-.216.74-.437.99-1.398.556-2.146L26.659 5.338a1.545 1.545 0 0 0-2.67-.021zm1.376 21.35c1.072 0 1.942.878 1.942 1.96 0 1.083-.87 1.961-1.942 1.961a1.951 1.951 0 0 1-1.942-1.96c0-1.083.87-1.961 1.942-1.961zm0-13.334a1.06 1.06 0 0 1 1.049 1.171l-1.05 10.594-1.049-10.594a1.062 1.062 0 0 1 1.05-1.17z" fill="#000" fill-rule="nonzero"/>
    </g>
</svg>
