<svg width="93" height="74" viewBox="0 0 93 74" xmlns="http://www.w3.org/2000/svg">
    <g fill-rule="nonzero" fill="none">
        <path d="M16.4 18.505c1.337-3.97 5.348-7.432 11.952-6.977 4.842.333 7.017 1.752 7.989 2.884.766.892.976 1.8.991 2.493-.264.17-.586.39-.943.66-.677.512-1.476 1.2-2.225 2.054-2.395 2.85-1.077 5.71-1.077 5.71.19-2.493 1.729-4.446 3.154-5.743a14.347 14.347 0 0 1 2.167-1.624c2.36-1.349 7.273-2.437 11.176.071 3.515 2.26 4.005 5.7 4.268 7.547l.04.266c.019.25-.021 1.308-.27 2.554-.29 1.455-.866 3.167-1.965 4.153 0 0 2.596-.385 3.478-4.349.052-.309.093-.603.123-.874.05-.433.075-.806.086-1.092 1.725-.645 7.477-.851 10.497 3.805 1.227 1.891 1.885 4.356 1.852 6.941-.007.512-.04 1.013-.099 1.502-.403 3.361-2.003 6.112-4.282 7.222h.018c.258-.007 3.2-.164 4.905-3.699.358-.931.617-1.947.767-3.025.043-.316.075-.639.1-.964 1.445.621 4.271 2.275 5.198 5.958l.064.274.056.277c.011.058.02.117.03.175a9.969 9.969 0 0 1 .118.997l.012.174c.011.187.017.373.018.56v.019c0 .204-.005.408-.016.613l-.006.085c-.01.173-.024.347-.042.52l-.013.12c-.02.17-.042.34-.07.508l-.014.094a11.897 11.897 0 0 1-.441 1.796l-.024.068c-.056.165-.115.327-.178.488l-.046.115c-.06.148-.123.294-.188.438l-.052.114a10.11 10.11 0 0 1-.242.483l-.019.036a9.081 9.081 0 0 1-.8 1.226c-.065.086-.13.174-.199.256-.999 1.192-2.76 2.563-5.465 2.337 0 0 2.883 1.437 4.812.222a8.32 8.32 0 0 0 1.277-1.075c.167-.17.33-.346.488-.534.102-.121.2-.247.296-.375.319 1.473.437 4.071-1.293 7.292-2.456 4.573-7.777 5.546-12.352 4.902a7.826 7.826 0 0 0 .737-1.357c1.25-3.103-.876-6.002-.876-6.002.36 2.563.046 4.726-.883 6.25a5.2 5.2 0 0 1-.609.812l-.282.29c-2.604 2.715-7.832 3.856-13.647.292-.178-.123-.6-.473-1.033-.986-.443-.523-.898-1.213-1.118-1.998 0 0-.263 1.41.182 2.685.1.285.235.562.416.816-3.033 1.721-9.598 2.004-14.015-3.418a6.412 6.412 0 0 1-.725-1.254c-1.683-3.823.198-9.106 2.183-10.888 0 0-2.567.516-3.704 3.755-3.45-.466-4.222-2.98-4.38-3.775 0 0-1.047 1.983 1.132 4.122.773.519 1.734.904 2.895 1.085-.368 2.04-.29 4.214.471 6.103.118.29.25.575.4.85a11.7 11.7 0 0 1-7.102-.857c-3.505-1.597-4.814-5.032-5.294-7.633a16.96 16.96 0 0 1-.2-1.461 20.256 20.256 0 0 1 .003-3.774s-1.278.769-1.461 2.822c-.03.332-.032.697.005 1.099l.004.03c-1.572-1.067-4.17-3.258-5.033-6.507-1.087-4.1.213-8.372 1.595-10.803a9.61 9.61 0 0 0 2.716 2.314 8.872 8.872 0 0 0 2.142.873c.703.184 1.495.3 2.371.3 2.852-.216 4.123-2.367 4.123-2.367-5.325 2.207-8.513-.148-9.9-1.679a6.602 6.602 0 0 1-.819-1.088c-.513-1.123-1.25-3.78-.782-6.673.562-3.477 2.633-6.13 6.153-7.882l.048-.024c.164-.077.624-.231 1.25-.376 1.178-.27 2.94-.507 4.421-.129 0 0-1.137-1.593-3.953-1.391-.325.023-.671.07-1.042.146zM43.743 43.07s-3.57-1.39-6.28 1.98c-1.754 2.372-2.477 5.592-1.982 8.835.51 3.355 3.648 6.634 7.46 7.798.979.298 1.957.445 2.919.445 6.054-.629 6.263-4.37 6.27-4.627v-.014c-3.25 3.595-6.855 3.18-8.715 2.612-3.187-.973-5.901-3.753-6.315-6.466-.428-2.807.183-5.575 1.675-7.594 1.23-1.664 2.949-2.691 4.968-2.969zM45.91 9.134c1.986-1.751 5.105-2.661 7.949-2.317 2.1.253 5.12 1.296 7.598 4.82.394.782 1.157 2.808.293 5.585 0 0 2.078-2.526 1.233-5.574 2.964-1.165 7.848-.575 11.72 2.911 3.596 3.237 2.837 7.909 2.704 8.587l-.013.06-.003.017-.146.642.015.005c-.232 1.039-.74 2.854-1.661 4.143 0 0 2.065-1.049 2.98-3.659 3.856 1.57 6.46 4.464 7.37 8.217.966 3.979-.235 8.123-1.608 10.045-.587-.397-1.453-.923-2.253-1.256a14.175 14.175 0 0 0-.908-3.44c-.531-1.302-1.154-2.385-1.835-3.277 1.908-1.192 1.936-3.16 1.932-3.401v-.025c-.25.3-1.466 1.694-2.891 2.323-.17-.17-.342-.33-.516-.48-3.271-2.226-5.51-.3-5.51-.3 2.294-.24 5.415 1.153 7.305 5.79 2.073 5.083.016 10.544-.005 10.598 0 0 2.578-1.4 2.578-5.536 0-.184-.003-.371-.009-.56.74.394 1.475.889 1.775 1.123 1.927 1.713 2.334 4.883 1.063 8.278-1.435 3.828-6.062 5.488-9.228 5.776.319-1.69.19-3.966-.2-5.47 1.089-2.702 1.537-5.243 1.333-7.557-.35-3.976-2.578-6.989-6.626-8.961-.185-3.61-1.435-6.844-3.497-9.126-.188-.655-.226-1.743.294-3.103l.044-.065c.267-.423.492-.853.68-1.285 1.268-1.589 3.576-1.812 4.604-1.332 0 0-1.242-2.263-3.892-1.073-.045.023-.09.05-.136.074.062-3.195-2.598-3.842-2.598-3.842 2.02 2.672.645 5.484-.04 6.569-.879 1.392-2.034 1.479-2.53 1.441-2.04-.928-4.434-1.278-7.075-1.022a11.529 11.529 0 0 0-2.942-5.772c.622-.78 1.05-1.834 1.292-2.917.448-2.673-1.244-3.521-1.451-3.614l-.02-.01c.468.81.352 3.955-.884 5.542a12.223 12.223 0 0 0-1.26-.927c-3.313-2.116-7.462-2.558-11.74-1.265-1.784-2.782-4.653-4.301-7.07-4.895 2.163-1.827 7.111-3.723 12.264-.798-.93 1.75-.098 3.495-.098 3.495.276-1.783 1.297-2.877 1.619-3.182zM28.446 17.32h-.024c-.282.007-2.922.14-4.307 2.601a9.331 9.331 0 0 0-.817 7.49c.014.045.031.089.046.134-1.353-.48-2.675-.505-3.697-.392-2.506.432-2.506 2.341-2.506 2.341.476-.531 4.348-1.93 7.285.281.96 1.486 2.278 2.716 3.696 3.601l-.007.014.04.024c1.117.655 1.507 1.641 1.194 3.008-1.471 1.65-2.425 3.481-2.829 5.074a9.807 9.807 0 0 0-.912-.069 10.713 10.713 0 0 0-3.724.58c-3.99 1.715-4.1 4.591-4.103 4.828v.015c1.37-1.939 4.48-3.856 7.785-3.769 2.948.078 5.515 1.719 7.424 4.745v-.02c-.007-.285-.166-3.756-3.97-5.66a9.5 9.5 0 0 0-.888-.315c.84-3.068 4.47-7.994 10.954-8.518 7.552-.612 11.602 4.814 12.167 10.112.368 3.443-.81 5.6-1.864 6.801-1.275 1.456-3.083 2.306-4.96 2.334l.016.007c.036.018.134.063.286.117l.143.048c.936.296 3.229.683 5.742-1.409.342-.39.648-.81.917-1.255.916 1.923 2.407 3.291 4.328 3.925 3.65 1.177 5.079-1.78 5.201-2.05l.009-.02c-1.153.96-3.065 1.23-4.757.672-1.894-.625-3.278-2.17-3.928-4.369.504-1.48.68-3.14.504-4.892a6.3 6.3 0 0 0 1.836.276c1.552 0 3.11-.567 4.372-1.67.803-.705 1.533-1.76 2.056-2.985 1.41-4.03-1.072-5.611-1.072-5.611.794 2.62-.423 5.913-2.059 7.344-1.562 1.368-3.713 1.646-5.453.739-.626-2.644-1.972-4.982-3.888-6.706-2.07-1.863-4.663-2.91-7.585-3.083-.413-2.382.368-6.648 3.635-8.098 0 0-2.815-.474-4.319 2.582-.809 1.863-.998 3.939-.79 5.502a15.43 15.43 0 0 0-.669.04 14.39 14.39 0 0 0-5.505 1.566c-1.18.178-2.81-.245-4.358-1.175-.038-.024-.074-.05-.113-.072l-.031-.018-.25-.16c-1.653-1.097-3.158-2.772-3.84-4.904a7.66 7.66 0 0 1 .673-6.147c1.414-2.41 2.916-3.434 2.916-3.434z" fill="#BEA0FF"/>
        <path d="M19.845 27.984s-1.63-.15-2.704 1.511c1.794-.5 7.396-.043 9.738 2.992.066-1.24-2.3-3.791-2.3-3.791l-4.734-.712zM21.393 43.015s-2.717 1.696-3.612 3.835c2.883-1.813 8.935-5.388 15.209.976-1.22-2.605-3.724-5.189-6.955-5.575-3.232-.385-4.642.764-4.642.764z" opacity=".4" fill="#FFF"/>
        <path d="m30.046 37.398-.734 1.832s3.337-3.902 10.62-4.494c7.281-.593 13.3 9.136 8.56 16.345 2.89-2.017 3.694-5.456 2.908-9.828-.785-4.372-5.344-8.734-10.985-8.688-5.641.046-10.369 4.834-10.369 4.834v-.001z" opacity=".4" fill="#715ADA"/>
        <path d="m7.375 47.244.608-.346s-.517-5.556 3.033-9.5c-.41-.589-1.82-1.922-1.82-1.922s-3.46 7.309-1.821 11.768zM8.38 31.998l1.185.27s-.036-5.234 2.937-8.36a13.375 13.375 0 0 1 8.894-4.16c-1.248-.559-2.976-1.389-2.976-1.389s1.06-2.54 4.398-4.195c3.338-1.655 8.86-.736 10.802.367 1.942 1.103 1.972 2.466 2.124 3.923-.607.735-3.312 4.004-2.657 6.874 1.2-2.523 3.02-5.196 6.844-6.433 3.823-1.238 8.192-.564 10.862 2.807 2.67 3.37 2.212 8.95.863 10.85 1.868-1.657 3.478-4.35 3.478-4.35s3.426-1.046 7.128.977c3.702 2.022 4.127 6.264 4.248 8.219.121 1.954-.693 6.145-3.198 8.31 2.288-1.269 4.172-1.966 5.476-5.54 1.91.655 6.532 3.613 5.343 9.58.814-1.325 3.484-8.53-5.254-12.986-.303-4.641-1.82-12.67-13.593-12.057-1.7-4.719-6.554-12.196-16.385-8.58-2.675-3.305-14.806-12.172-24.09 2.77-3.945 2.562-7.22 7.64-6.43 13.103z" opacity=".4" fill="#FFF"/>
        <path d="M16.083 55.961s1.756 8.588 11.073 7.604c.032-.985-.98-3.074-.98-3.074s-7.423.864-10.093-4.53zM28.584 58.658c-.729 3.47 2.784 8.273 8.492 9.376 5.707 1.104 6.653-1.102 6.653-1.102l-1.476-3.079s-2.286 1.67-6.097 1.056c-3.81-.613-6.884-3.619-7.572-6.251zM8.558 43.612c-.733 2.458.792 7.07 4.524 9.439l1.48-3.212s-4.456-.987-6.004-6.227z" opacity=".2" fill="#36087A"/>
        <path d="m31.03 34.817.145-.117c-.06-.014-.118-.03-.178-.047.012.055.024.109.033.164z" fill="#FE52A7"/>
        <g opacity=".4" fill="#FFF">
            <path d="m81.681 42.216.476 2.61s4.26 1.077 3.173 6.843c1.1-1.897 1.828-5.023.508-6.678-1.32-1.655-4.157-2.775-4.157-2.775z"/>
        </g>
        <g opacity=".4" fill="#FFF">
            <path d="M76.523 33.285s-2.804-1.173-4.163-.525c3.738 1.75 8.261 5.393 7.3 16.388 2.03-2.543 2.204-8.876.262-12.002-1.942-3.125-3.399-3.86-3.399-3.86z"/>
        </g>
        <g opacity=".4" fill="#FFF">
            <path d="m30.95 10.012 3.527.445s4.681-2.864 9.475.023l.34 1.836s1.358-2.81 4.954-3.775c3.595-.966 8.314-.008 10.604 2.946 2.29 2.953 1.9 5.735 1.9 5.735s1.468-3.123 1.433-3.927c2.584-.755 6.543-.54 9.941 1.911 3.399 2.452 4.586 8.047 2.474 12.807 1.653-1.96 2.189-2.075 2.189-2.075s4.38.545 6.989 6.245-.91 10.97-.91 10.97l.849.368s4.369-5.516 1.941-11.706c-2.427-6.19-8.13-8.274-8.13-8.274s1.516-8.274-5.098-10.786C66.813 10.242 62.08 10.67 62.08 10.67s-2.838-4.964-7.518-4.964-9.23 2.451-9.23 2.451-9.346-4.75-14.383 1.854h.001z"/>
        </g>
        <g>
            <path d="M59.304 61.47s-.613 7.356-9.146 7.131c-8.298-.218-7.857-5.118-7.857-5.118s1.757 2.606 6.263 3.02c4.506.414 9.102-1.953 10.74-5.033zM72.366 58.23s-1 6.618-7.228 7.915c-6.68 1.39-6.47.588-6.47.588s2.093-4.037 2.272-5.523c.913 2.29 7.83 4.512 11.426-2.98zM23.577 54.506s-1.363-.733-1.319-3.101c1.137 1.646 3.868 3.33 6.826.573-1.138 1.563-1.928 3.984-1.928 3.984l-3.579-1.456zM84.746 48.76s.225 7.486-6.669 9.075l-2.98 1.222v-4.413s7.737 1.379 9.649-5.884zM79.922 33.224l1.354-2.006s-.748 4.697 1.194 6.508c1.942 1.81 3.034-1.253 3.034-1.253s-.23 3.177-1.785 5.743c-.824.202-2.038 0-2.038 0l-3.459-7.827 1.7-1.165zM73.732 47.32s.12 9.014-6.949 8.43c3.187-1.443 6.039-2.975 6.949-8.43zM59.653 40.579l1.883-3.18s-.271 4.886-4.553 7.286c-4.281 2.4-2.019 8.225 4.088 7.238-1.331 1.621-2.085 2.384-4.209 2.813-2.124.429-4.43-1.655-5.34-1.9-.91-.245-4.367.46-5.73.092 2.999-.828 4.646-2.374 5.79-4.168 1.145-1.794.79-6.455.79-6.455s4.55 1.215 7.281-1.726zM37.868 51.404c.086 4.493 2.06 5.906 4.429 7.652 2.367 1.747 8.12 1.827 9.833-1.569-1.33.987-5.099 1.57-9.225-.239-2.978-1.305-4.386-3.98-5.037-5.844zM24.578 28.696s1.246 1.518 1.18 2.757c0 0 3.493 3.2.31 7.682-2.002 2.82-5.04 1.444-7.305 5.183-.602.993 4.541-2.544 8-2.013 1.274-3.473 6.008-7.651 6.008-7.651l-8.193-5.958zM10.56 27.984c-.728 2.911-.728 7.385 3.096 10.266 3.823 2.88 7.37-.65 7.37-.65s-10.283.405-10.465-9.616z" opacity=".2" fill="#36087A"/>
            <path d="m39.87 43.612 3.873-.54s-1.415-2.073-5.875-.766-8.991 1.065-8.364-3.365c-1.55 1.122-2.348 3.846-2.348 3.846s3.96.244 5.834 5.04c.873 1.485 1.742 2.084 2.491 6.06.476-4.115 4.39-10.274 4.39-10.274zM25.742 23.05c-.496 3.126.432 6.764 4.05 9.437 3.616 2.673 5.658.553 5.658.553l4.724-.98.24-5.938s-1.09 2.965-6.096 3.885c-5.006.919-8.154-2.395-8.576-6.957zM42.723 26.85s-1.518 3.735 0 5.637c1.517 1.901 4.742 1.272 4.742 1.272s-4.925-1.087-4.742-6.909zM59.212 36.762s-.215 4.028-4.294 5.186c-.757.357-2.787 0-2.787 0l-2.217-5.942s1.614 2.4 3.75 2.935c2.136.534 4.47.23 5.548-2.18zM35.744 12.141l.154-.895s4.562 3.696 8.394 1.07c.19 1.112 5.012 3.873 8.943 1.635.472.703 1.389.09 1.389.09s-.31 2.942 1.328 5.332c1.638 2.39 8.738 5.77 10.468 2.488 1.062-1.2 1.368-3.292-.575-5.372 2.001.126 5.121.792 6.626 4.841-1.126-1.087-4.989-.425-5.717 1.72-.728 2.145-2.427 3.494-2.427 3.494l-9.042-1.839s-1.453-8.703-10.527-9.315c-2.216.429-5.979 1.041-5.979 1.041l-3.034-4.29z" opacity=".2" fill="#36087A"/>
            <path d="M68.634 22.989c-.85 1.348-1.638 3.248-.789 6.864.85 3.616 4.515 2.907 4.515 2.907l2.238-.77s-2.262.214-3.9-1.636c-1.639-1.85-2.185-4.117-2.064-7.365z" opacity=".2" fill="#36087A"/>
            <path d="M88.249 32.003c-1.064-4.387-4.01-7.786-8.359-9.687.153-2.178-.097-6.377-3.611-9.54-3.968-3.572-9.485-4.944-13.664-3.538-2.825-3.43-6.117-4.51-8.475-4.795-3.113-.376-6.394.44-8.844 2.15C38.4 2.856 31.431 6.097 29.33 9.162l-.031.046a29.664 29.664 0 0 0-.786-.065c-8.252-.57-13.227 4.316-14.582 9.36-4.739 2.632-6.288 6.462-6.743 9.272-.445 2.748.003 5.412.624 7.194-1.531 2.56-3.421 7.65-2.02 12.933 1.232 4.646 5.153 7.408 6.803 8.392.946 4.075 3.229 7.11 6.485 8.593 3.702 1.686 7.01 1.354 8.673.997 2.415 2.58 5.593 4.171 9.056 4.514 2.698.267 5.387-.249 7.316-1.365 2.663 1.453 5.227 2.066 7.543 2.066 3.024 0 5.624-1.045 7.467-2.632 2.7.447 5.447.347 7.819-.296 3.37-.914 5.96-2.902 7.49-5.75.324-.604.592-1.191.815-1.762 3.911-.125 10.062-2.132 12.02-7.36 1.398-3.728 1.115-7.333-.687-9.79 1.66-2.711 2.669-7.333 1.656-11.505zM74.582 47.065l-.006.085c-.01.174-.024.348-.042.521l-.014.12c-.019.17-.042.34-.068.508-.006.031-.01.063-.015.094a11.897 11.897 0 0 1-.442 1.796l-.023.068a11.572 11.572 0 0 1-.412 1.04l-.052.115c-.077.164-.158.325-.243.483l-.018.035a9.046 9.046 0 0 1-.8 1.226c-.066.086-.13.174-.199.257-.999 1.192-2.76 2.563-5.465 2.336 0 0 2.882 1.438 4.811.222.45-.304.877-.664 1.278-1.074.166-.17.33-.346.487-.534.102-.122.2-.248.297-.376.319 1.474.436 4.072-1.293 7.292-2.456 4.574-7.777 5.546-12.352 4.903a7.826 7.826 0 0 0 .737-1.357c1.249-3.103-.876-6.003-.876-6.003.36 2.563.046 4.726-.883 6.25-.18.296-.383.567-.61.813h-.003l-.279.29c-2.603 2.714-7.831 3.855-13.647.292-.178-.123-.599-.474-1.032-.986-.443-.523-.899-1.213-1.119-1.998 0 0-.262 1.41.182 2.684.1.285.235.563.416.817-3.032 1.72-9.597 2.004-14.015-3.418a6.45 6.45 0 0 1-.724-1.254c-1.683-3.824.198-9.106 2.182-10.888 0 0-2.566.516-3.703 3.755-3.45-.467-4.223-2.982-4.38-3.775 0 0-1.048 1.983 1.131 4.122.774.518 1.734.904 2.896 1.084-.368 2.04-.29 4.215.471 6.103.117.291.249.576.4.851a11.703 11.703 0 0 1-7.103-.858c-3.504-1.596-4.813-5.032-5.294-7.633a16.96 16.96 0 0 1-.2-1.46 20.256 20.256 0 0 1 .004-3.774s-1.278.768-1.462 2.822c-.03.332-.031.697.006 1.099l.004.03c-1.573-1.068-4.171-3.258-5.033-6.508-1.087-4.099.213-8.37 1.594-10.802.183.226.4.472.65.725a9.601 9.601 0 0 0 2.066 1.589 8.902 8.902 0 0 0 2.143.872c.703.185 1.494.3 2.371.3 2.852-.215 4.123-2.366 4.123-2.366-5.326 2.207-8.513-.149-9.9-1.68a6.651 6.651 0 0 1-.82-1.087c-.513-1.123-1.25-3.78-.782-6.673.563-3.478 2.633-6.13 6.153-7.882l.049-.024c.164-.078.624-.231 1.25-.376 1.178-.272 2.94-.508 4.421-.13 0 0-1.138-1.592-3.953-1.39-.325.023-.672.069-1.042.145 1.336-3.97 5.347-7.431 11.951-6.977 4.843.334 7.018 1.753 7.99 2.884.766.893.975 1.8.99 2.494-.263.17-.585.39-.942.66-.677.511-1.476 1.2-2.225 2.053-2.395 2.85-1.077 5.711-1.077 5.711.19-2.494 1.729-4.447 3.154-5.743a14.33 14.33 0 0 1 2.167-1.625l.006-.003c2.354-1.345 7.266-2.434 11.17.075 3.514 2.259 4.004 5.699 4.268 7.547l.04.266c.018.25-.022 1.308-.27 2.554-.291 1.455-.866 3.167-1.966 4.152 0 0 2.596-.384 3.478-4.348.052-.31.093-.603.124-.874.05-.433.075-.806.085-1.092 1.726-.646 7.477-.852 10.498 3.804 1.227 1.892 1.885 4.357 1.851 6.942-.006.511-.04 1.013-.098 1.501-.404 3.362-2.004 6.113-4.282 7.223 0 0 3.138 0 4.923-3.7.357-.93.617-1.947.766-3.025.044-.316.075-.638.1-.964 1.446.622 4.272 2.276 5.2 5.958.045.182.084.366.119.552l.03.175a10.072 10.072 0 0 1 .118.996c.004.058.009.116.012.175.01.185.016.37.017.557v.02c0 .204-.006.408-.016.613v.001zm6.694-15.847c-.25.3-1.465 1.694-2.89 2.322-.17-.17-.342-.33-.516-.48-3.271-2.226-5.51-.3-5.51-.3 2.294-.24 5.415 1.153 7.305 5.79 2.073 5.084.015 10.544-.005 10.598 0 0 2.578-1.399 2.578-5.536 0-.184-.003-.37-.009-.559.74.394 1.475.888 1.775 1.123 1.927 1.712 2.334 4.882 1.062 8.277-1.434 3.828-6.06 5.489-9.227 5.776.318-1.69.19-3.966-.2-5.47 1.089-2.701 1.537-5.243 1.333-7.557-.35-3.976-2.578-6.989-6.626-8.96-.185-3.61-1.435-6.845-3.497-9.126-.188-.656-.226-1.744.294-3.104l.044-.064a9.52 9.52 0 0 0 .68-1.286c1.268-1.589 3.576-1.812 4.604-1.331 0 0-1.242-2.263-3.892-1.073-.045.023-.09.05-.136.073.062-3.195-2.598-3.841-2.598-3.841 2.02 2.671.645 5.483-.04 6.568-.879 1.393-2.034 1.48-2.53 1.442-2.04-.929-4.434-1.278-7.075-1.023a11.528 11.528 0 0 0-2.942-5.772c.623-.78 1.05-1.834 1.292-2.917.477-2.845-1.472-3.623-1.472-3.623.469.809.353 3.954-.883 5.541a12.277 12.277 0 0 0-1.26-.927c-3.313-2.115-7.462-2.557-11.74-1.264-1.784-2.782-4.652-4.302-7.07-4.896 2.163-1.826 7.111-3.723 12.264-.798-.93 1.75-.098 3.496-.098 3.496.276-1.784 1.297-2.877 1.619-3.183 1.986-1.75 5.105-2.66 7.949-2.317 2.1.253 5.12 1.297 7.598 4.82.394.782 1.157 2.808.293 5.585 0 0 2.077-2.526 1.233-5.573 2.964-1.166 7.848-.575 11.72 2.91 3.804 3.425 2.735 8.453 2.688 8.664l-.146.643.014.005c-.231 1.038-.739 2.854-1.66 4.142 0 0 2.065-1.049 2.98-3.658 3.856 1.57 6.46 4.464 7.37 8.217.966 3.978-.236 8.122-1.608 10.044-.588-.397-1.453-.923-2.253-1.256a14.17 14.17 0 0 0-.908-3.44c-.53-1.302-1.154-2.384-1.835-3.277 2.035-1.27 1.93-3.424 1.93-3.424l.001-.001z" fill="#715ADA"/>
            <path d="M43.415 60.1c-3.187-.974-5.902-3.754-6.315-6.466-.428-2.808.182-5.576 1.675-7.594 1.23-1.665 2.948-2.692 4.968-2.97 0 0-3.57-1.389-6.281 1.98-1.754 2.372-2.476 5.592-1.982 8.835.512 3.355 3.65 6.634 7.46 7.798.98.298 1.958.446 2.92.446 6.27-.652 6.27-4.642 6.27-4.642-3.25 3.595-6.855 3.18-8.715 2.612z" fill="#715ADA"/>
            <path d="M60.084 33.344c.794 2.62-.424 5.913-2.06 7.345-1.561 1.366-3.712 1.645-5.453.738-.626-2.644-1.97-4.982-3.887-6.706-2.07-1.863-4.663-2.91-7.585-3.083-.414-2.382.368-6.648 3.635-8.098 0 0-2.815-.474-4.32 2.582-.808 1.863-.997 3.939-.789 5.502-.222.009-.445.021-.67.04-2.081.168-3.919.742-5.505 1.566-1.18.178-2.809-.245-4.358-1.175-.038-.024-.074-.05-.113-.072l-.03-.019c-1.75-1.09-3.374-2.825-4.091-5.062a7.658 7.658 0 0 1 .674-6.148c1.414-2.41 2.916-3.434 2.916-3.434s-2.868 0-4.332 2.601a9.33 9.33 0 0 0-.817 7.49l.047.134c-1.353-.48-2.675-.505-3.697-.392-2.507.432-2.507 2.341-2.507 2.341.476-.531 4.349-1.93 7.285.281.961 1.486 2.278 2.716 3.697 3.601l-.008.014.041.024c1.116.655 1.507 1.641 1.193 3.008-1.471 1.65-2.424 3.481-2.828 5.074a9.807 9.807 0 0 0-.912-.069 10.721 10.721 0 0 0-3.724.58c-4.164 1.789-4.103 4.843-4.103 4.843 1.369-1.939 4.48-3.855 7.784-3.769 2.948.078 5.516 1.719 7.424 4.745 0 0 0-3.693-3.97-5.68a9.5 9.5 0 0 0-.888-.315c.84-3.068 4.47-7.994 10.955-8.518 7.551-.612 11.601 4.814 12.167 10.112.368 3.443-.811 5.6-1.864 6.801-1.276 1.456-3.084 2.306-4.96 2.334 0 0 2.905 1.494 6.187-1.237.342-.39.647-.81.916-1.255.917 1.923 2.408 3.291 4.329 3.925 3.823 1.233 5.21-2.07 5.21-2.07-1.154.96-3.066 1.23-4.758.672-1.894-.625-3.277-2.17-3.928-4.369.504-1.48.68-3.14.504-4.892a6.301 6.301 0 0 0 1.837.276c1.552 0 3.11-.567 4.371-1.67.804-.705 1.534-1.76 2.056-2.985 1.412-4.03-1.07-5.611-1.07-5.611h-.001zM31.03 34.817c-.01-.055-.02-.11-.033-.164l.178.048-.145.116z" fill="#715ADA"/>
        </g>
    </g>
</svg>
