<svg width="36" height="36" viewBox="0 0 36 36" xmlns="http://www.w3.org/2000/svg">
    <defs>
        <linearGradient x1="19.719%" y1="12.206%" x2="65.703%" y2="91.967%" id="rt3xm6zh7a">
            <stop stop-color="#ED1FFF" offset="0%"/>
            <stop stop-color="#7867FC" offset="16.439%"/>
            <stop stop-color="#46B5D4" offset="29.212%"/>
            <stop stop-color="#24FCDC" offset="46.395%"/>
            <stop stop-color="#52FA54" offset="71.379%"/>
            <stop stop-color="#F5923C" offset="100%"/>
        </linearGradient>
    </defs>
    <g fill="none" fill-rule="evenodd">
        <circle cx="18" cy="18" r="18" fill="#000" fill-rule="nonzero"/>
        <path d="M17.055 6C24.757 6 31 11.621 31 18.555c0 3.185-1.318 6.094-3.49 8.308.179-.998.272-2.026.272-3.077 0-2.45-.506-4.775-1.414-6.872-.695 1.053-2.217 2.78-4.451 3.772a10.55 10.55 0 0 1-.445.185l.922 1.382 1.718-.796c.112 1.158-.071 1.888-.55 2.188-.72.45-2.362 1.209-3.779 1.428-1.242.1-2.416-.633-2.878-1.03l2.1-.398-1.233-1.841c-1.458.22-1.538.216-2.298.208-.506-.006-1.175-.448-2.005-1.326a33.6 33.6 0 0 0 3.089-.694l-1.65-2.464c-2.63 1.324-4.068 3.596-3.236 5.039 2.947 3.865 7.525 6.387 12.636 6.387l.224-.002c-1.71.674-3.6 1.048-5.587 1.048C11.243 30 5 24.379 5 17.445c0-3.185 1.318-6.094 3.49-8.308a17.458 17.458 0 0 0-.272 3.077c0 2.43.497 4.737 1.392 6.82.652-.977 2-2.51 3.953-3.512l-.953-1.423c-.344 0-1.639 1.16-2.243 1.74a5.998 5.998 0 0 1 .158-2.187c.281-1.082 4.819-3.24 6.033-3.02.809.146 1.72.688 2.734 1.627-.888-.045-2.567.16-3.267.476l1.102 1.625c1.855-.37 2.55-.428 3.492-.417.627.007 1.251.457 1.87 1.35-1.307.229-2.07.379-4.085.981l1.727 2.588c3.38-1.317 5.214-3.761 4.124-5.537-2.95-3.828-7.481-6.279-12.563-6.279l-.224.002C13.178 6.374 15.068 6 17.055 6z" fill="url(#rt3xm6zh7a)"/>
    </g>
</svg>
